<?xml version="1.0" encoding="UTF-8" standalone="no"?>
<!-- Created with Inkscape (http://www.inkscape.org/) -->

<svg
   width="1768.9468"
   height="1536.1145"
   viewBox="0 0 468.03388 406.43029"
   version="1.1"
   id="svg5"
   inkscape:version="1.1.1 (3bf5ae0d25, 2021-09-20)"
   sodipodi:docname="brand-guidelines.svg"
   inkscape:export-filename="/home/josneth/Documents/My Projects/Orca/Guidelines/brand-guidelines.png"
   inkscape:export-xdpi="96"
   inkscape:export-ydpi="96"
   xmlns:inkscape="http://www.inkscape.org/namespaces/inkscape"
   xmlns:sodipodi="http://sodipodi.sourceforge.net/DTD/sodipodi-0.dtd"
   xmlns="http://www.w3.org/2000/svg"
   xmlns:svg="http://www.w3.org/2000/svg">
  <sodipodi:namedview
     id="namedview7"
     pagecolor="#dddddd"
     bordercolor="#666666"
     borderopacity="1.0"
     inkscape:pageshadow="2"
     inkscape:pageopacity="0"
     inkscape:pagecheckerboard="0"
     inkscape:document-units="mm"
     showgrid="false"
     units="px"
     inkscape:showpageshadow="false"
     inkscape:snap-page="true"
     showborder="true"
     showguides="false"
     inkscape:guide-bbox="true"
     inkscape:snap-global="true"
     inkscape:snap-bbox="true"
     inkscape:snap-bbox-edge-midpoints="true"
     inkscape:bbox-paths="false"
     inkscape:bbox-nodes="false"
     inkscape:zoom="0.14582735"
     inkscape:cx="912.0374"
     inkscape:cy="497.16325"
     inkscape:window-width="1024"
     inkscape:window-height="568"
     inkscape:window-x="0"
     inkscape:window-y="0"
     inkscape:window-maximized="1"
     inkscape:current-layer="layer1"
     inkscape:lockguides="false"
     inkscape:snap-bbox-midpoints="false"
     fit-margin-top="100"
     fit-margin-left="100"
     fit-margin-right="100"
     fit-margin-bottom="100">
    <sodipodi:guide
       position="84.125011,379.97198"
       orientation="0,-1"
       id="guide1726"
       inkscape:locked="false" />
    <inkscape:grid
       type="xygrid"
       id="grid45258"
       spacingx="16.536459"
       spacingy="10.583334"
       color="#000000"
       opacity="0.23137255"
       empcolor="#000000"
       empopacity="0.25490196"
       originx="-15.875004"
       originy="15.875" />
    <sodipodi:guide
       position="224.89585,327.05531"
       orientation="1,0"
       id="guide34578" />
    <sodipodi:guide
       position="26.458338,327.05531"
       orientation="1,0"
       id="guide5882" />
    <sodipodi:guide
       position="150.16104,256.12505"
       orientation="0,-1"
       id="guide6170" />
    <sodipodi:guide
       position="242.89588,347.09002"
       orientation="1,0"
       id="guide6230" />
    <sodipodi:guide
       position="50.942276,203.20837"
       orientation="1,0"
       id="guide6232" />
    <sodipodi:guide
       position="150.16104,132.29169"
       orientation="0,-1"
       id="guide6234" />
  </sodipodi:namedview>
  <defs
     id="defs2">
    <filter
       style="color-interpolation-filters:sRGB"
       inkscape:label="Drop Shadow"
       id="filter16098"
       x="-0.10475333"
       y="-0.10787184"
       width="1.2226008"
       height="1.2292277">
      <feFlood
         flood-opacity="0.14902"
         flood-color="rgb(0,0,0)"
         result="flood"
         id="feFlood16088" />
      <feComposite
         in="flood"
         in2="SourceGraphic"
         operator="in"
         result="composite1"
         id="feComposite16090" />
      <feGaussianBlur
         in="composite1"
         stdDeviation="1"
         result="blur"
         id="feGaussianBlur16092" />
      <feOffset
         dx="0.3"
         dy="0.3"
         result="offset"
         id="feOffset16094" />
      <feComposite
         in="SourceGraphic"
         in2="offset"
         operator="over"
         result="composite2"
         id="feComposite16096" />
    </filter>
    <filter
       style="color-interpolation-filters:sRGB"
       inkscape:label="Drop Shadow"
       id="filter16128"
       x="-0.10475333"
       y="-0.10787184"
       width="1.2226008"
       height="1.2292277">
      <feFlood
         flood-opacity="0.14902"
         flood-color="rgb(0,0,0)"
         result="flood"
         id="feFlood16118" />
      <feComposite
         in="flood"
         in2="SourceGraphic"
         operator="in"
         result="composite1"
         id="feComposite16120" />
      <feGaussianBlur
         in="composite1"
         stdDeviation="1"
         result="blur"
         id="feGaussianBlur16122" />
      <feOffset
         dx="0.3"
         dy="0.3"
         result="offset"
         id="feOffset16124" />
      <feComposite
         in="SourceGraphic"
         in2="offset"
         operator="over"
         result="composite2"
         id="feComposite16126" />
    </filter>
    <filter
       style="color-interpolation-filters:sRGB"
       inkscape:label="Drop Shadow"
       id="filter16158"
       x="-0.10475333"
       y="-0.10787184"
       width="1.2226008"
       height="1.2292277">
      <feFlood
         flood-opacity="0.14902"
         flood-color="rgb(0,0,0)"
         result="flood"
         id="feFlood16148" />
      <feComposite
         in="flood"
         in2="SourceGraphic"
         operator="in"
         result="composite1"
         id="feComposite16150" />
      <feGaussianBlur
         in="composite1"
         stdDeviation="1"
         result="blur"
         id="feGaussianBlur16152" />
      <feOffset
         dx="0.3"
         dy="0.3"
         result="offset"
         id="feOffset16154" />
      <feComposite
         in="SourceGraphic"
         in2="offset"
         operator="over"
         result="composite2"
         id="feComposite16156" />
    </filter>
    <filter
       style="color-interpolation-filters:sRGB"
       inkscape:label="Drop Shadow"
       id="filter16170"
       x="-0.10475333"
       y="-0.10787184"
       width="1.2226008"
       height="1.2292277">
      <feFlood
         flood-opacity="0.14902"
         flood-color="rgb(0,0,0)"
         result="flood"
         id="feFlood16160" />
      <feComposite
         in="flood"
         in2="SourceGraphic"
         operator="in"
         result="composite1"
         id="feComposite16162" />
      <feGaussianBlur
         in="composite1"
         stdDeviation="1"
         result="blur"
         id="feGaussianBlur16164" />
      <feOffset
         dx="0.3"
         dy="0.3"
         result="offset"
         id="feOffset16166" />
      <feComposite
         in="SourceGraphic"
         in2="offset"
         operator="over"
         result="composite2"
         id="feComposite16168" />
    </filter>
    <filter
       style="color-interpolation-filters:sRGB"
       inkscape:label="Drop Shadow"
       id="filter1229"
       x="-0.012094488"
       y="-0.022677163"
       width="1.0257008"
       height="1.048189">
      <feFlood
         flood-opacity="0.298039"
         flood-color="rgb(0,0,0)"
         result="flood"
         id="feFlood1219" />
      <feComposite
         in="flood"
         in2="SourceGraphic"
         operator="in"
         result="composite1"
         id="feComposite1221" />
      <feGaussianBlur
         in="composite1"
         stdDeviation="1"
         result="blur"
         id="feGaussianBlur1223" />
      <feOffset
         dx="0.3"
         dy="0.3"
         result="offset"
         id="feOffset1225" />
      <feComposite
         in="SourceGraphic"
         in2="offset"
         operator="over"
         result="composite2"
         id="feComposite1227" />
    </filter>
  </defs>
  <g
     inkscape:label="Layer 1"
     inkscape:groupmode="layer"
     id="layer1"
     transform="translate(-15.874999,15.875)">
    <rect
       style="fill:#f7f7f8;fill-opacity:1;stroke:#060614;stroke-width:0;stroke-linecap:square;paint-order:stroke fill markers"
       id="rect6972"
       width="468.03384"
       height="406.4303"
       x="15.874999"
       y="-15.875" />
    <path
       d="M 288.22314,-8.3457098 A 195.68574,195.68574 0 0 0 92.537464,187.34016 195.68574,195.68574 0 0 0 288.22314,383.02601 195.68574,195.68574 0 0 0 483.90884,187.34016 195.68574,195.68574 0 0 0 288.22314,-8.3457098 Z M 241.99626,62.839968 A 78.274299,78.274299 0 0 1 320.2707,141.1144 78.274299,78.274299 0 0 1 241.99626,219.38864 78.274299,78.274299 0 0 1 163.72202,141.1144 78.274299,78.274299 0 0 1 241.99626,62.839968 Z M 361.11024,221.09115 a 39.137149,39.137149 0 0 1 39.13722,39.13723 39.137149,39.137149 0 0 1 -39.13722,39.13701 39.137149,39.137149 0 0 1 -39.13722,-39.13701 39.137149,39.137149 0 0 1 39.13722,-39.13723 z"
       stroke-linecap="square"
       stroke-width="9.78429"
       style="fill:#100e34;fill-opacity:0.0236003;paint-order:markers stroke fill"
       id="path34744-3" />
    <rect
       style="fill:#ffffff;fill-opacity:1;stroke-width:0.529167;stroke-linecap:square;paint-order:markers stroke fill"
       id="rect36868"
       width="198.4375"
       height="105.83334"
       x="42.47559"
       y="134.43027"
       rx="3.96875"
       ry="1.9562687"
       inkscape:export-filename="/home/josneth/Documents/My Projects/Orca/Guidelines/2.png"
       inkscape:export-xdpi="96"
       inkscape:export-ydpi="96" />
    <text
       xml:space="preserve"
       style="font-weight:bold;font-size:10.3346px;line-height:1.75;font-family:Mulish;-inkscape-font-specification:'Mulish Bold';word-spacing:0px;fill:#100e34;fill-opacity:1;stroke-width:0.264583"
       x="61.544281"
       y="152.61986"
       id="text36880"
       inkscape:export-filename="/home/josneth/Documents/My Projects/Orca/Guidelines/2.png"
       inkscape:export-xdpi="96"
       inkscape:export-ydpi="96"><tspan
         sodipodi:role="line"
         id="tspan36878"
         style="font-size:10.3346px;fill:#100e34;fill-opacity:1;stroke-width:0.264583"
         x="61.544281"
         y="152.61986">Tipography</tspan></text>
    <text
       xml:space="preserve"
       style="font-size:6.35px;line-height:1.75;font-family:Mulish;-inkscape-font-specification:Mulish;word-spacing:0px;fill:#100e34;fill-opacity:1;stroke-width:0.264583"
       x="89.174561"
       y="184.32825"
       id="text17518"
       inkscape:export-filename="/home/josneth/Documents/My Projects/Orca/Guidelines/2.png"
       inkscape:export-xdpi="96"
       inkscape:export-ydpi="96"><tspan
         sodipodi:role="line"
         id="tspan17516"
         style="fill:#100e34;fill-opacity:1;stroke-width:0.264583"
         x="89.174561"
         y="184.32825">Mulish</tspan></text>
    <text
       xml:space="preserve"
       style="font-size:19.05px;line-height:1.75;font-family:Mulish;-inkscape-font-specification:Mulish;word-spacing:0px;fill:#100e34;fill-opacity:1;stroke-width:0.264583"
       x="61.657867"
       y="184.81709"
       id="text19802"
       inkscape:export-filename="/home/josneth/Documents/My Projects/Orca/Guidelines/2.png"
       inkscape:export-xdpi="96"
       inkscape:export-ydpi="96"><tspan
         sodipodi:role="line"
         id="tspan19800"
         style="font-size:19.05px;fill:#100e34;fill-opacity:1;stroke-width:0.264583"
         x="61.657867"
         y="184.81709">Aa</tspan></text>
    <text
       xml:space="preserve"
       style="font-style:normal;font-variant:normal;font-weight:300;font-stretch:normal;font-size:4.23333px;line-height:1.75;font-family:Mulish;-inkscape-font-specification:'Mulish Light';letter-spacing:0.264583px;word-spacing:0px;fill:#100e34;fill-opacity:1;stroke-width:0.264583"
       x="61.806305"
       y="194.5753"
       id="text23306"
       inkscape:export-filename="/home/josneth/Documents/My Projects/Orca/Guidelines/2.png"
       inkscape:export-xdpi="96"
       inkscape:export-ydpi="96"><tspan
         sodipodi:role="line"
         id="tspan23304"
         style="font-style:normal;font-variant:normal;font-weight:300;font-stretch:normal;font-family:Mulish;-inkscape-font-specification:'Mulish Light';fill:#100e34;fill-opacity:1;stroke-width:0.264583"
         x="61.806305"
         y="194.5753">ABCDEFGHIJKLMNÑOPQRSTUVWXYZ</tspan><tspan
         sodipodi:role="line"
         style="font-style:normal;font-variant:normal;font-weight:300;font-stretch:normal;font-family:Mulish;-inkscape-font-specification:'Mulish Light';fill:#100e34;fill-opacity:1;stroke-width:0.264583"
         x="61.806305"
         y="201.98363"
         id="tspan23308">abcdefghijklmnñopqrstuvwxyz</tspan><tspan
         sodipodi:role="line"
         style="font-style:normal;font-variant:normal;font-weight:300;font-stretch:normal;font-family:Mulish;-inkscape-font-specification:'Mulish Light';fill:#100e34;fill-opacity:1;stroke-width:0.264583"
         x="61.806305"
         y="209.39195"
         id="tspan24432">123456789#$&amp;%(){}[]¿?¡!,.</tspan></text>
    <text
       xml:space="preserve"
       style="font-size:10.3346px;line-height:1.75;font-family:Mulish;-inkscape-font-specification:Mulish;word-spacing:0px;fill:#100e34;fill-opacity:1;stroke-width:0.264583"
       x="162.89551"
       y="177.41109"
       id="text26195"
       inkscape:export-filename="/home/josneth/Documents/My Projects/Orca/Guidelines/2.png"
       inkscape:export-xdpi="96"
       inkscape:export-ydpi="96"><tspan
         sodipodi:role="line"
         style="font-style:normal;font-variant:normal;font-weight:200;font-stretch:normal;font-size:10.3346px;font-family:Mulish;-inkscape-font-specification:'Mulish Ultra-Light';fill:#100e34;fill-opacity:1;stroke-width:0.264583"
         x="162.89551"
         y="177.41109"
         id="tspan28127">Light</tspan><tspan
         sodipodi:role="line"
         style="font-style:normal;font-variant:normal;font-weight:300;font-stretch:normal;font-size:10.3346px;font-family:Mulish;-inkscape-font-specification:'Mulish Light';fill:#100e34;fill-opacity:1;stroke-width:0.264583"
         x="162.89551"
         y="195.49664"
         id="tspan31745">Normal</tspan><tspan
         sodipodi:role="line"
         style="font-style:normal;font-variant:normal;font-weight:600;font-stretch:normal;font-size:10.3346px;font-family:Mulish;-inkscape-font-specification:'Mulish Semi-Bold';fill:#100e34;fill-opacity:1;stroke-width:0.264583"
         x="162.89551"
         y="213.58218"
         id="tspan28129">Bold</tspan></text>
    <rect
       style="fill:#ffffff;fill-opacity:1;stroke-width:0.529167;stroke-linecap:square;paint-order:markers stroke fill"
       id="rect44790"
       width="198.4375"
       height="105.83334"
       x="258.91299"
       y="134.43027"
       rx="3.96875"
       ry="1.9562687"
       inkscape:export-filename="/home/josneth/Documents/My Projects/Orca/Guidelines/3.png"
       inkscape:export-xdpi="96"
       inkscape:export-ydpi="96" />
    <rect
       style="fill:#ffffff;fill-opacity:1;stroke-width:0.529166;stroke-linecap:square;paint-order:markers stroke fill"
       id="rect886"
       width="198.4375"
       height="105.83334"
       x="42.333332"
       y="10.583333"
       rx="3.9687459"
       ry="1.9562668"
       inkscape:export-filename="/home/josneth/Documents/My Projects/Orca/Guidelines/portada.png"
       inkscape:export-xdpi="96"
       inkscape:export-ydpi="96" />
    <g
       transform="matrix(1.6240235,0,0,1.6240235,89.416668,73.395883)"
       id="g8296"
       inkscape:export-filename="/home/josneth/Documents/My Projects/Orca/Guidelines/portada.png"
       inkscape:export-xdpi="96"
       inkscape:export-ydpi="96">
      <path
         d="M 10.583,-16.933 A 10.583,10.583 0 0 0 0,-6.35 10.583,10.583 0 0 0 10.583,4.233 10.583,10.583 0 0 0 21.166,-6.35 10.583,10.583 0 0 0 10.583,-16.933 Z m -2.5001,3.8499 a 4.2333,4.2333 0 0 1 4.2333,4.2333 4.2333,4.2333 0 0 1 -4.2333,4.2333 4.2333,4.2333 0 0 1 -4.2333,-4.2333 4.2333,4.2333 0 0 1 4.2333,-4.2333 z m 6.442,8.5587 a 2.1167,2.1167 0 0 1 2.1167,2.1167 2.1167,2.1167 0 0 1 -2.1167,2.1167 2.1167,2.1167 0 0 1 -2.1167,-2.1167 2.1167,2.1167 0 0 1 2.1167,-2.1167 z"
         fill="#4f48ec"
         stroke-linecap="square"
         stroke-width="0.52917"
         style="paint-order:markers stroke fill"
         id="path8290" />
      <text
         x="24.218901"
         y="0.36512434"
         fill="#100e34"
         font-family="Mulish"
         font-size="19.05px"
         stroke-width="0.26458"
         word-spacing="0px"
         style="line-height:1.75"
         xml:space="preserve"
         id="text8294"><tspan
           x="24.218901"
           y="0.36512434"
           fill="#100e34"
           stroke-width="0.26458"
           id="tspan8292">Orca</tspan></text>
    </g>
    <text
       xml:space="preserve"
       style="font-weight:bold;font-size:10.3346px;line-height:1.75;font-family:Mulish;-inkscape-font-specification:'Mulish Bold';word-spacing:0px;fill:#100e34;fill-opacity:1;stroke-width:0.264583"
       x="274.88104"
       y="152.61989"
       id="text53373"
       inkscape:export-filename="/home/josneth/Documents/My Projects/Orca/Guidelines/3.png"
       inkscape:export-xdpi="96"
       inkscape:export-ydpi="96"><tspan
         sodipodi:role="line"
         id="tspan53371"
         style="font-size:10.3346px;fill:#100e34;fill-opacity:1;stroke-width:0.264583"
         x="274.88104"
         y="152.61989">Colors</tspan></text>
    <rect
       style="fill:#ffffff;fill-opacity:1;stroke-width:0.529167;stroke-linecap:square;paint-order:markers stroke fill"
       id="rect1066"
       width="198.4375"
       height="105.83334"
       x="42.333336"
       y="258.26361"
       rx="3.96875"
       ry="1.9562687"
       inkscape:export-filename="/home/josneth/Documents/My Projects/Orca/Guidelines/5.png"
       inkscape:export-xdpi="96"
       inkscape:export-ydpi="96" />
    <text
       xml:space="preserve"
       style="font-weight:bold;font-size:10.3346px;line-height:1.75;font-family:Mulish;-inkscape-font-specification:'Mulish Bold';word-spacing:0px;fill:#100e34;fill-opacity:1;stroke-width:0.264583"
       x="60.709488"
       y="276.45328"
       id="text1078"
       inkscape:export-filename="/home/josneth/Documents/My Projects/Orca/Guidelines/5.png"
       inkscape:export-xdpi="96"
       inkscape:export-ydpi="96"><tspan
         sodipodi:role="line"
         id="tspan1076"
         style="font-size:10.3346px;fill:#100e34;fill-opacity:1;stroke-width:0.264583"
         x="60.709488"
         y="276.45328">Logo monochromatic</tspan></text>
    <rect
       style="fill:#ffffff;fill-opacity:1;stroke-width:0.529167;stroke-linecap:square;paint-order:markers stroke fill"
       id="rect1084"
       width="198.437"
       height="105.83334"
       x="258.77087"
       y="258.26361"
       rx="3.96875"
       ry="1.9562687"
       inkscape:export-filename="/home/josneth/Documents/My Projects/Orca/Guidelines/4.png"
       inkscape:export-xdpi="96"
       inkscape:export-ydpi="96" />
    <text
       xml:space="preserve"
       style="font-weight:bold;font-size:10.3346px;line-height:1.75;font-family:Mulish;-inkscape-font-specification:'Mulish Bold';word-spacing:0px;fill:#100e34;fill-opacity:1;stroke-width:0.264583"
       x="274.50125"
       y="276.45325"
       id="text6579"
       inkscape:export-filename="/home/josneth/Documents/My Projects/Orca/Guidelines/4.png"
       inkscape:export-xdpi="96"
       inkscape:export-ydpi="96"><tspan
         sodipodi:role="line"
         id="tspan6577"
         style="font-size:10.3346px;fill:#100e34;fill-opacity:1;stroke-width:0.264583"
         x="274.50125"
         y="276.45325">Logo color</tspan></text>
    <rect
       style="fill:#ffffff;fill-opacity:1;stroke-width:0.529167;stroke-linecap:square;paint-order:markers stroke fill"
       id="rect1561"
       width="198.437"
       height="105.83334"
       x="259.01349"
       y="10.656749"
       rx="3.96875"
       ry="1.9562687"
       inkscape:export-filename="/home/josneth/Documents/My Projects/Orca/Guidelines/1.png"
       inkscape:export-xdpi="96"
       inkscape:export-ydpi="96" />
    <text
       xml:space="preserve"
       style="font-weight:bold;font-size:10.3346px;line-height:1.75;font-family:Mulish;-inkscape-font-specification:'Mulish Bold';word-spacing:0px;fill:#100e34;fill-opacity:1;stroke-width:0.264583"
       x="274.74384"
       y="28.846369"
       id="text1573"
       inkscape:export-filename="/home/josneth/Documents/My Projects/Orca/Guidelines/1.png"
       inkscape:export-xdpi="96"
       inkscape:export-ydpi="96"><tspan
         sodipodi:role="line"
         id="tspan1571"
         style="font-size:10.3346px;fill:#100e34;fill-opacity:1;stroke-width:0.264583"
         x="274.74384"
         y="28.846369">Logo mark</tspan></text>
    <path
       d="m 303.32613,54.881929 a 10.583533,10.583533 0 0 0 -10.58353,10.58354 10.583533,10.583533 0 0 0 10.58353,10.58354 10.583533,10.583533 0 0 0 10.58353,-10.58354 10.583533,10.583533 0 0 0 -10.58353,-10.58354 z m -2.50015,3.85003 a 4.2334133,4.2334133 0 0 1 4.23342,4.23342 4.2334133,4.2334133 0 0 1 -4.23342,4.23341 4.2334133,4.2334133 0 0 1 -4.23341,-4.23341 4.2334133,4.2334133 0 0 1 4.23341,-4.23342 z m 6.4422,8.55891 a 2.1167066,2.1167066 0 0 1 2.11671,2.11671 2.1167066,2.1167066 0 0 1 -2.11671,2.1167 2.1167066,2.1167066 0 0 1 -2.11671,-2.1167 2.1167066,2.1167066 0 0 1 2.11671,-2.11671 z"
       stroke-linecap="square"
       stroke-width="0.529177"
       style="fill:#4f48ec;fill-opacity:1;paint-order:markers stroke fill"
       id="path2"
       inkscape:export-filename="/home/josneth/Documents/My Projects/Orca/Guidelines/1.png"
       inkscape:export-xdpi="96"
       inkscape:export-ydpi="96" />
    <path
       d="m 340.36782,54.881929 a 10.583533,10.583533 0 0 0 -10.58353,10.58354 10.583533,10.583533 0 0 0 10.58353,10.58354 10.583533,10.583533 0 0 0 10.58353,-10.58354 10.583533,10.583533 0 0 0 -10.58353,-10.58354 z m -2.50015,3.85003 a 4.2334133,4.2334133 0 0 1 4.23342,4.23342 4.2334133,4.2334133 0 0 1 -4.23342,4.23341 4.2334133,4.2334133 0 0 1 -4.23341,-4.23341 4.2334133,4.2334133 0 0 1 4.23341,-4.23342 z m 6.4422,8.55891 a 2.1167066,2.1167066 0 0 1 2.11671,2.11671 2.1167066,2.1167066 0 0 1 -2.11671,2.1167 2.1167066,2.1167066 0 0 1 -2.11671,-2.1167 2.1167066,2.1167066 0 0 1 2.11671,-2.11671 z"
       stroke-linecap="square"
       stroke-width="0.529177"
       style="fill:#ffbf18;fill-opacity:1;paint-order:markers stroke fill"
       id="path34742"
       inkscape:export-filename="/home/josneth/Documents/My Projects/Orca/Guidelines/1.png"
       inkscape:export-xdpi="96"
       inkscape:export-ydpi="96" />
    <path
       d="m 377.40951,54.881929 a 10.583533,10.583533 0 0 0 -10.58353,10.58354 10.583533,10.583533 0 0 0 10.58353,10.58354 10.583533,10.583533 0 0 0 10.58353,-10.58354 10.583533,10.583533 0 0 0 -10.58353,-10.58354 z m -2.50015,3.85003 a 4.2334133,4.2334133 0 0 1 4.23342,4.23342 4.2334133,4.2334133 0 0 1 -4.23342,4.23341 4.2334133,4.2334133 0 0 1 -4.23341,-4.23341 4.2334133,4.2334133 0 0 1 4.23341,-4.23342 z m 6.4422,8.55891 a 2.1167066,2.1167066 0 0 1 2.11671,2.11671 2.1167066,2.1167066 0 0 1 -2.11671,2.1167 2.1167066,2.1167066 0 0 1 -2.11671,-2.1167 2.1167066,2.1167066 0 0 1 2.11671,-2.11671 z"
       stroke-linecap="square"
       stroke-width="0.529177"
       style="fill:#100e34;fill-opacity:1;paint-order:markers stroke fill"
       id="path34744"
       inkscape:export-filename="/home/josneth/Documents/My Projects/Orca/Guidelines/1.png"
       inkscape:export-xdpi="96"
       inkscape:export-ydpi="96" />
    <path
       d="m 414.4512,54.881929 a 10.583533,10.583533 0 0 0 -10.58353,10.58354 10.583533,10.583533 0 0 0 10.58353,10.58354 10.583533,10.583533 0 0 0 10.58353,-10.58354 10.583533,10.583533 0 0 0 -10.58353,-10.58354 z m -2.50015,3.85003 a 4.2334133,4.2334133 0 0 1 4.23342,4.23342 4.2334133,4.2334133 0 0 1 -4.23342,4.23341 4.2334133,4.2334133 0 0 1 -4.23341,-4.23341 4.2334133,4.2334133 0 0 1 4.23341,-4.23342 z m 6.4422,8.55891 a 2.1167066,2.1167066 0 0 1 2.11671,2.11671 2.1167066,2.1167066 0 0 1 -2.11671,2.1167 2.1167066,2.1167066 0 0 1 -2.11671,-2.1167 2.1167066,2.1167066 0 0 1 2.11671,-2.11671 z"
       stroke-linecap="square"
       stroke-width="0.529177"
       style="fill:none;stroke:#100e34;stroke-width:0.529167;stroke-miterlimit:4;stroke-dasharray:none;stroke-opacity:1;paint-order:markers stroke fill"
       id="path34746"
       inkscape:export-filename="/home/josneth/Documents/My Projects/Orca/Guidelines/1.png"
       inkscape:export-xdpi="96"
       inkscape:export-ydpi="96" />
    <path
       id="rect43197"
       style="fill:#4f48ec;fill-opacity:1;stroke:none;stroke-width:0.487151;stroke-linecap:square;stroke-miterlimit:4;stroke-dasharray:none;stroke-opacity:1;paint-order:markers stroke fill"
       d="m 283.24472,297.28155 c -4.39738,0 -7.9375,3.00028 -7.9375,6.72706 v 21.78281 c 0,3.72679 3.54012,6.72706 7.9375,6.72706 h 74.74479 v -35.23693 z"
       inkscape:export-filename="/home/josneth/Documents/My Projects/Orca/Guidelines/4.png"
       inkscape:export-xdpi="96"
       inkscape:export-ydpi="96" />
    <path
       id="path46421"
       style="fill:#ffbf18;fill-opacity:1;stroke:none;stroke-width:0.487151;stroke-linecap:square;stroke-miterlimit:4;stroke-dasharray:none;stroke-opacity:1;paint-order:markers stroke fill"
       d="m 432.7343,297.28155 c 4.39737,0 7.9375,3.00028 7.9375,6.72706 v 21.78281 c 0,3.72679 -3.54013,6.72706 -7.9375,6.72706 h -74.74479 v -35.23693 z"
       inkscape:export-filename="/home/josneth/Documents/My Projects/Orca/Guidelines/4.png"
       inkscape:export-xdpi="96"
       inkscape:export-ydpi="96" />
    <g
       transform="matrix(0.68003309,0,0,0.68003309,294.49038,319.21822)"
       id="g49148"
       style="fill:#ffffff;fill-opacity:0.966464"
       inkscape:export-filename="/home/josneth/Documents/My Projects/Orca/Guidelines/4.png"
       inkscape:export-xdpi="96"
       inkscape:export-ydpi="96">
      <path
         d="M 10.583,-16.933 A 10.583,10.583 0 0 0 0,-6.35 10.583,10.583 0 0 0 10.583,4.233 10.583,10.583 0 0 0 21.166,-6.35 10.583,10.583 0 0 0 10.583,-16.933 Z m -2.5001,3.8499 a 4.2333,4.2333 0 0 1 4.2333,4.2333 4.2333,4.2333 0 0 1 -4.2333,4.2333 4.2333,4.2333 0 0 1 -4.2333,-4.2333 4.2333,4.2333 0 0 1 4.2333,-4.2333 z m 6.442,8.5587 a 2.1167,2.1167 0 0 1 2.1167,2.1167 2.1167,2.1167 0 0 1 -2.1167,2.1167 2.1167,2.1167 0 0 1 -2.1167,-2.1167 2.1167,2.1167 0 0 1 2.1167,-2.1167 z"
         fill="#4f48ec"
         stroke-linecap="square"
         stroke-width="0.52917"
         style="fill:#ffffff;fill-opacity:0.966464;paint-order:markers stroke fill"
         id="path49142" />
      <text
         x="24.218901"
         y="0.36512434"
         fill="#100e34"
         font-family="Mulish"
         font-size="19.05px"
         stroke-width="0.26458"
         word-spacing="0px"
         style="line-height:1.75;fill:#ffffff;fill-opacity:0.966464"
         xml:space="preserve"
         id="text49146"><tspan
           x="24.218901"
           y="0.36512434"
           fill="#100e34"
           stroke-width="0.26458"
           id="tspan49144"
           style="fill:#ffffff;fill-opacity:0.966464">Orca</tspan></text>
    </g>
    <g
       transform="matrix(0.68003309,0,0,0.68003309,377.17267,319.21823)"
       id="g49282"
       style="fill:#100e34;fill-opacity:1"
       inkscape:export-filename="/home/josneth/Documents/My Projects/Orca/Guidelines/4.png"
       inkscape:export-xdpi="96"
       inkscape:export-ydpi="96">
      <path
         d="M 10.583,-16.933 A 10.583,10.583 0 0 0 0,-6.35 10.583,10.583 0 0 0 10.583,4.233 10.583,10.583 0 0 0 21.166,-6.35 10.583,10.583 0 0 0 10.583,-16.933 Z m -2.5001,3.8499 a 4.2333,4.2333 0 0 1 4.2333,4.2333 4.2333,4.2333 0 0 1 -4.2333,4.2333 4.2333,4.2333 0 0 1 -4.2333,-4.2333 4.2333,4.2333 0 0 1 4.2333,-4.2333 z m 6.442,8.5587 a 2.1167,2.1167 0 0 1 2.1167,2.1167 2.1167,2.1167 0 0 1 -2.1167,2.1167 2.1167,2.1167 0 0 1 -2.1167,-2.1167 2.1167,2.1167 0 0 1 2.1167,-2.1167 z"
         fill="#4f48ec"
         stroke-linecap="square"
         stroke-width="0.52917"
         style="fill:#100e34;fill-opacity:1;paint-order:markers stroke fill"
         id="path49276" />
      <text
         x="24.218901"
         y="0.36512434"
         fill="#100e34"
         font-family="Mulish"
         font-size="19.05px"
         stroke-width="0.26458"
         word-spacing="0px"
         style="line-height:1.75;fill:#100e34;fill-opacity:1"
         xml:space="preserve"
         id="text49280"><tspan
           x="24.218901"
           y="0.36512434"
           fill="#100e34"
           stroke-width="0.26458"
           id="tspan49278"
           style="fill:#100e34;fill-opacity:1">Orca</tspan></text>
    </g>
    <path
       id="path50419"
       style="fill:#ffffff;fill-opacity:1;stroke:none;stroke-width:0.487151;stroke-linecap:square;stroke-miterlimit:4;stroke-dasharray:none;stroke-opacity:1;paint-order:markers stroke fill"
       d="m 66.807163,297.28157 c -4.397377,0 -7.937494,3.00028 -7.937494,6.72706 v 21.78281 c 0,3.72679 3.540117,6.72706 7.937494,6.72706 h 74.744747 v -35.23693 z"
       inkscape:export-filename="/home/josneth/Documents/My Projects/Orca/Guidelines/5.png"
       inkscape:export-xdpi="96"
       inkscape:export-ydpi="96" />
    <path
       id="path50421"
       style="fill:#000000;fill-opacity:1;stroke:none;stroke-width:0.487151;stroke-linecap:square;stroke-miterlimit:4;stroke-dasharray:none;stroke-opacity:1;paint-order:markers stroke fill"
       d="m 216.2967,297.28157 c 4.39737,0 7.9375,3.00028 7.9375,6.72706 v 21.78281 c 0,3.72679 -3.54013,6.72706 -7.9375,6.72706 h -74.74479 v -35.23693 z"
       inkscape:export-filename="/home/josneth/Documents/My Projects/Orca/Guidelines/5.png"
       inkscape:export-xdpi="96"
       inkscape:export-ydpi="96" />
    <g
       transform="matrix(0.68003309,0,0,0.68003309,78.052819,319.21825)"
       id="g50429"
       style="fill:#000000;fill-opacity:0.966464"
       inkscape:export-filename="/home/josneth/Documents/My Projects/Orca/Guidelines/5.png"
       inkscape:export-xdpi="96"
       inkscape:export-ydpi="96">
      <path
         d="M 10.583,-16.933 A 10.583,10.583 0 0 0 0,-6.35 10.583,10.583 0 0 0 10.583,4.233 10.583,10.583 0 0 0 21.166,-6.35 10.583,10.583 0 0 0 10.583,-16.933 Z m -2.5001,3.8499 a 4.2333,4.2333 0 0 1 4.2333,4.2333 4.2333,4.2333 0 0 1 -4.2333,4.2333 4.2333,4.2333 0 0 1 -4.2333,-4.2333 4.2333,4.2333 0 0 1 4.2333,-4.2333 z m 6.442,8.5587 a 2.1167,2.1167 0 0 1 2.1167,2.1167 2.1167,2.1167 0 0 1 -2.1167,2.1167 2.1167,2.1167 0 0 1 -2.1167,-2.1167 2.1167,2.1167 0 0 1 2.1167,-2.1167 z"
         fill="#4f48ec"
         stroke-linecap="square"
         stroke-width="0.52917"
         style="fill:#000000;fill-opacity:0.966464;paint-order:markers stroke fill"
         id="path50423" />
      <text
         x="24.218901"
         y="0.36512434"
         fill="#100e34"
         font-family="Mulish"
         font-size="19.05px"
         stroke-width="0.26458"
         word-spacing="0px"
         style="line-height:1.75;fill:#000000;fill-opacity:0.966464"
         xml:space="preserve"
         id="text50427"><tspan
           x="24.218901"
           y="0.36512434"
           fill="#100e34"
           stroke-width="0.26458"
           id="tspan50425"
           style="fill:#000000;fill-opacity:0.966464">Orca</tspan></text>
    </g>
    <g
       transform="matrix(0.68003309,0,0,0.68003309,160.73507,319.21825)"
       id="g50437"
       style="fill:#ffffff;fill-opacity:1"
       inkscape:export-filename="/home/josneth/Documents/My Projects/Orca/Guidelines/5.png"
       inkscape:export-xdpi="96"
       inkscape:export-ydpi="96">
      <path
         d="M 10.583,-16.933 A 10.583,10.583 0 0 0 0,-6.35 10.583,10.583 0 0 0 10.583,4.233 10.583,10.583 0 0 0 21.166,-6.35 10.583,10.583 0 0 0 10.583,-16.933 Z m -2.5001,3.8499 a 4.2333,4.2333 0 0 1 4.2333,4.2333 4.2333,4.2333 0 0 1 -4.2333,4.2333 4.2333,4.2333 0 0 1 -4.2333,-4.2333 4.2333,4.2333 0 0 1 4.2333,-4.2333 z m 6.442,8.5587 a 2.1167,2.1167 0 0 1 2.1167,2.1167 2.1167,2.1167 0 0 1 -2.1167,2.1167 2.1167,2.1167 0 0 1 -2.1167,-2.1167 2.1167,2.1167 0 0 1 2.1167,-2.1167 z"
         fill="#4f48ec"
         stroke-linecap="square"
         stroke-width="0.52917"
         style="fill:#ffffff;fill-opacity:1;paint-order:markers stroke fill"
         id="path50431" />
      <text
         x="24.218901"
         y="0.36512434"
         fill="#100e34"
         font-family="Mulish"
         font-size="19.05px"
         stroke-width="0.26458"
         word-spacing="0px"
         style="line-height:1.75;fill:#ffffff;fill-opacity:1"
         xml:space="preserve"
         id="text50435"><tspan
           x="24.218901"
           y="0.36512434"
           fill="#100e34"
           stroke-width="0.26458"
           id="tspan50433"
           style="fill:#ffffff;fill-opacity:1">Orca</tspan></text>
    </g>
    <rect
       style="fill:#4f48ec;fill-opacity:1;stroke:none;stroke-width:0.245129;stroke-linecap:square;paint-order:stroke fill markers"
       id="rect27349"
       width="25.4"
       height="25.4"
       x="295.6138"
       y="177.06142"
       ry="8.4666662"
       inkscape:export-filename="/home/josneth/Documents/My Projects/Orca/Guidelines/3.png"
       inkscape:export-xdpi="96"
       inkscape:export-ydpi="96" />
    <text
       xml:space="preserve"
       style="font-style:normal;font-variant:normal;font-weight:300;font-stretch:normal;font-size:4.23333px;line-height:1.75;font-family:Mulish;-inkscape-font-specification:'Mulish Light';word-spacing:0px;fill:#5e5c70;fill-opacity:1;stroke-width:0.264583"
       x="299.34128"
       y="208.87978"
       id="text54016-6"
       inkscape:export-filename="/home/josneth/Documents/My Projects/Orca/Guidelines/3.png"
       inkscape:export-xdpi="96"
       inkscape:export-ydpi="96"><tspan
         sodipodi:role="line"
         id="tspan54014-9"
         style="font-style:normal;font-variant:normal;font-weight:300;font-stretch:normal;font-family:Mulish;-inkscape-font-specification:'Mulish Light';fill:#5e5c70;fill-opacity:1;stroke-width:0.264583"
         x="299.34128"
         y="208.87978">#5E5C70</tspan></text>
    <rect
       style="fill:#ffbf18;fill-opacity:1;stroke:none;stroke-width:0.245129;stroke-linecap:square;paint-order:stroke fill markers"
       id="rect30241"
       width="25.4"
       height="25.4"
       x="328.42212"
       y="177.06142"
       ry="8.4666662"
       inkscape:export-filename="/home/josneth/Documents/My Projects/Orca/Guidelines/3.png"
       inkscape:export-xdpi="96"
       inkscape:export-ydpi="96" />
    <rect
       style="fill:#100e34;fill-opacity:1;stroke:none;stroke-width:0.245129;stroke-linecap:square;paint-order:stroke fill markers"
       id="rect30945"
       width="25.4"
       height="25.4"
       x="361.75961"
       y="177.06142"
       ry="8.4666662"
       inkscape:export-filename="/home/josneth/Documents/My Projects/Orca/Guidelines/3.png"
       inkscape:export-xdpi="96"
       inkscape:export-ydpi="96" />
    <rect
       style="fill:#fefeff;fill-opacity:1;stroke:#918fa3;stroke-width:0.245129;stroke-linecap:square;stroke-opacity:1;paint-order:stroke fill markers"
       id="rect30965"
       width="25.4"
       height="25.4"
       x="395.09708"
       y="177.06142"
       ry="8.4666662"
       inkscape:export-filename="/home/josneth/Documents/My Projects/Orca/Guidelines/3.png"
       inkscape:export-xdpi="96"
       inkscape:export-ydpi="96" />
    <text
       xml:space="preserve"
       style="font-style:normal;font-variant:normal;font-weight:300;font-stretch:normal;font-size:4.23333px;line-height:1.75;font-family:Mulish;-inkscape-font-specification:'Mulish Light';word-spacing:0px;fill:#5e5c70;fill-opacity:1;stroke-width:0.264583"
       x="332.3909"
       y="208.87978"
       id="text34769"
       inkscape:export-filename="/home/josneth/Documents/My Projects/Orca/Guidelines/3.png"
       inkscape:export-xdpi="96"
       inkscape:export-ydpi="96"><tspan
         sodipodi:role="line"
         id="tspan34767"
         style="font-style:normal;font-variant:normal;font-weight:300;font-stretch:normal;font-family:Mulish;-inkscape-font-specification:'Mulish Light';fill:#5e5c70;fill-opacity:1;stroke-width:0.264583"
         x="332.3909"
         y="208.87978">#FFBF18</tspan></text>
    <text
       xml:space="preserve"
       style="font-style:normal;font-variant:normal;font-weight:300;font-stretch:normal;font-size:4.23333px;line-height:1.75;font-family:Mulish;-inkscape-font-specification:'Mulish Light';word-spacing:0px;fill:#5e5c70;fill-opacity:1;stroke-width:0.264583"
       x="365.60352"
       y="208.87978"
       id="text34773"
       inkscape:export-filename="/home/josneth/Documents/My Projects/Orca/Guidelines/3.png"
       inkscape:export-xdpi="96"
       inkscape:export-ydpi="96"><tspan
         sodipodi:role="line"
         id="tspan34771"
         style="font-style:normal;font-variant:normal;font-weight:300;font-stretch:normal;font-family:Mulish;-inkscape-font-specification:'Mulish Light';fill:#5e5c70;fill-opacity:1;stroke-width:0.264583"
         x="365.60352"
         y="208.87978">#100E34</tspan></text>
    <text
       xml:space="preserve"
       style="font-style:normal;font-variant:normal;font-weight:300;font-stretch:normal;font-size:4.23333px;line-height:1.75;font-family:Mulish;-inkscape-font-specification:'Mulish Light';word-spacing:0px;fill:#5e5c70;fill-opacity:1;stroke-width:0.264583"
       x="399.46378"
       y="208.84592"
       id="text34777"
       inkscape:export-filename="/home/josneth/Documents/My Projects/Orca/Guidelines/3.png"
       inkscape:export-xdpi="96"
       inkscape:export-ydpi="96"><tspan
         sodipodi:role="line"
         id="tspan34775"
         style="font-style:normal;font-variant:normal;font-weight:300;font-stretch:normal;font-family:Mulish;-inkscape-font-specification:'Mulish Light';fill:#5e5c70;fill-opacity:1;stroke-width:0.264583"
         x="399.46378"
         y="208.84592">#FFFFFF</tspan></text>
  </g>
</svg>
