<?xml version="1.0" encoding="UTF-8" standalone="no"?>
<!-- Created with Inkscape (http://www.inkscape.org/) -->

<svg
   width="80"
   height="80"
   viewBox="0 0 21.166668 21.166668"
   version="1.1"
   id="svg5"
   inkscape:version="1.1.1 (3bf5ae0d25, 2021-09-20)"
   sodipodi:docname="logo.svg"
   xmlns:inkscape="http://www.inkscape.org/namespaces/inkscape"
   xmlns:sodipodi="http://sodipodi.sourceforge.net/DTD/sodipodi-0.dtd"
   xmlns="http://www.w3.org/2000/svg"
   xmlns:svg="http://www.w3.org/2000/svg">
  <sodipodi:namedview
     id="namedview7"
     pagecolor="#ffffff"
     bordercolor="#666666"
     borderopacity="1.0"
     inkscape:pageshadow="2"
     inkscape:pageopacity="0.0"
     inkscape:pagecheckerboard="0"
     inkscape:document-units="px"
     showgrid="true"
     units="px"
     showborder="true"
     inkscape:snap-bbox="true"
     inkscape:snap-bbox-midpoints="true"
     showguides="false"
     inkscape:bbox-nodes="false"
     inkscape:zoom="1"
     inkscape:cx="52.999999"
     inkscape:cy="33.499999"
     inkscape:window-width="1024"
     inkscape:window-height="568"
     inkscape:window-x="0"
     inkscape:window-y="0"
     inkscape:window-maximized="1"
     inkscape:current-layer="layer1"
     fit-margin-top="0"
     fit-margin-left="0"
     fit-margin-right="0"
     fit-margin-bottom="0">
    <inkscape:grid
       type="xygrid"
       id="grid2808"
       empspacing="4"
       spacingx="1.0583334"
       spacingy="1.0583334"
       enabled="false"
       originx="0.58342695"
       originy="10.583334" />
    <inkscape:grid
       type="axonomgrid"
       id="grid5911"
       gridanglex="45"
       gridanglez="45"
       enabled="false"
       originx="0.58342695"
       originy="10.583334" />
  </sodipodi:namedview>
  <defs
     id="defs2" />
  <g
     inkscape:label="Layer 1"
     inkscape:groupmode="layer"
     id="layer1"
     transform="translate(0.58342695,10.583334)">
    <path
       id="path3478"
       style="fill:#000000;fill-opacity:1;stroke-width:2;stroke-linecap:square;paint-order:markers stroke fill"
       d="M 37.794922,-40 A 40,40 0 0 0 -2.2050781,0 40,40 0 0 0 37.794922,40 a 40,40 0 0 0 40,-40 40,40 0 0 0 -40,-40 z m -9.449219,14.550781 a 16,16 0 0 1 16,16.0000002 16,16 0 0 1 -16,16 16,16 0 0 1 -16,-16 16,16 0 0 1 16,-16.0000002 z M 52.693359,6.8984375 a 8,8 0 0 1 8,8.0000005 8,8 0 0 1 -8,8 8,8 0 0 1 -8,-8 8,8 0 0 1 8,-8.0000005 z"
       transform="scale(0.26458335)" />
  </g>
</svg>
