<svg width="246.3" height="80" version="1.1" viewBox="0 0 65.167 21.167" xmlns="http://www.w3.org/2000/svg">
 <g transform="translate(1e-6 16.933)">
  <path d="m10.583-16.933a10.583 10.583 0 0 0-10.583 10.583 10.583 10.583 0 0 0 10.583 10.583 10.583 10.583 0 0 0 10.583-10.583 10.583 10.583 0 0 0-10.583-10.583zm-2.5001 3.8499a4.2333 4.2333 0 0 1 4.2333 4.2333 4.2333 4.2333 0 0 1-4.2333 4.2333 4.2333 4.2333 0 0 1-4.2333-4.2333 4.2333 4.2333 0 0 1 4.2333-4.2333zm6.442 8.5587a2.1167 2.1167 0 0 1 2.1167 2.1167 2.1167 2.1167 0 0 1-2.1167 2.1167 2.1167 2.1167 0 0 1-2.1167-2.1167 2.1167 2.1167 0 0 1 2.1167-2.1167z" stroke-linecap="square" stroke-width=".52917" style="paint-order:markers stroke fill"/>
  <text x="24.218901" y="0.36512434" font-family="Mulish" font-size="19.05px" stroke-width=".26458" word-spacing="0px" style="line-height:1.75" xml:space="preserve"><tspan x="24.218901" y="0.36512434" stroke-width=".26458">Orca</tspan></text>
 </g>
</svg>
