<?xml version="1.0" encoding="UTF-8" standalone="no"?>
<svg
   width="80.001511"
   height="80.001511"
   version="1.1"
   viewBox="0 0 21.1664 21.1664"
   id="svg4"
   sodipodi:docname="logo-min.svg"
   inkscape:version="1.1.1 (3bf5ae0d25, 2021-09-20)"
   xmlns:inkscape="http://www.inkscape.org/namespaces/inkscape"
   xmlns:sodipodi="http://sodipodi.sourceforge.net/DTD/sodipodi-0.dtd"
   xmlns="http://www.w3.org/2000/svg"
   xmlns:svg="http://www.w3.org/2000/svg">
  <defs
     id="defs8" />
  <sodipodi:namedview
     id="namedview6"
     pagecolor="#ffffff"
     bordercolor="#666666"
     borderopacity="1.0"
     inkscape:pageshadow="2"
     inkscape:pageopacity="0.0"
     inkscape:pagecheckerboard="0"
     showgrid="false"
     fit-margin-top="0"
     fit-margin-left="0"
     fit-margin-right="0"
     fit-margin-bottom="0"
     inkscape:zoom="1.0375"
     inkscape:cx="-35.662651"
     inkscape:cy="163.37349"
     inkscape:window-width="1024"
     inkscape:window-height="568"
     inkscape:window-x="0"
     inkscape:window-y="0"
     inkscape:window-maximized="1"
     inkscape:current-layer="svg4" />
  <path
     d="M 10.5832,0 A 10.5832,10.5832 0 0 0 0,10.5832 10.5832,10.5832 0 0 0 10.5832,21.1664 10.5832,10.5832 0 0 0 21.1664,10.5832 10.5832,10.5832 0 0 0 10.5832,0 Z M 8.0831307,3.8499036 a 4.23328,4.23328 0 0 1 4.2332803,4.23328 4.23328,4.23328 0 0 1 -4.2332803,4.2332804 4.23328,4.23328 0 0 1 -4.23328,-4.2332804 4.23328,4.23328 0 0 1 4.23328,-4.23328 z m 6.4419943,8.5586334 a 2.11664,2.11664 0 0 1 2.11664,2.11664 2.11664,2.11664 0 0 1 -2.11664,2.11664 2.11664,2.11664 0 0 1 -2.11664,-2.11664 2.11664,2.11664 0 0 1 2.11664,-2.11664 z"
     stroke-linecap="square"
     stroke-width="0.52916"
     style="paint-order:markers stroke fill"
     id="path2" />
</svg>
